<svg width="247" height="85" viewBox="0 0 247 85" fill="none" xmlns="http://www.w3.org/2000/svg">
<path d="M2.05859 50.75H2.18359C2.31693 50.75 2.43359 50.7 2.53359 50.6C2.63359 50.5 2.71693 50.3833 2.78359 50.25C2.86693 50.1167 2.92526 49.975 2.95859 49.825C2.99193 49.6583 3.00859 49.5083 3.00859 49.375V36.05C3.00859 35.9333 2.99193 35.8 2.95859 35.65C2.92526 35.5 2.86693 35.3583 2.78359 35.225C2.71693 35.0917 2.63359 34.9833 2.53359 34.9C2.43359 34.8 2.32526 34.75 2.20859 34.75H2.08359V34.5H5.63359V34.75H5.50859C5.37526 34.75 5.25859 34.8 5.15859 34.9C5.05859 34.9833 4.96693 35.0917 4.88359 35.225C4.81693 35.3583 4.75859 35.5 4.70859 35.65C4.67526 35.8 4.65859 35.9333 4.65859 36.05V41.225L10.4586 35.45C10.5919 35.3167 10.6586 35.1583 10.6586 34.975C10.6586 34.825 10.5919 34.75 10.4586 34.75V34.5H13.1586V34.75C12.8253 34.7667 12.5253 34.8667 12.2586 35.05C12.0086 35.2333 11.7336 35.475 11.4336 35.775L5.50859 41.7C6.59193 41.7333 7.46693 41.9667 8.13359 42.4C8.80026 42.8333 9.32526 43.4333 9.70859 44.2L11.6836 48.2C11.8003 48.45 11.9503 48.725 12.1336 49.025C12.3336 49.3083 12.5503 49.5833 12.7836 49.85C13.0336 50.1 13.3086 50.3167 13.6086 50.5C13.9086 50.6667 14.2253 50.75 14.5586 50.75V51H13.3086C12.8253 51 12.4086 50.9333 12.0586 50.8C11.7086 50.65 11.4003 50.4583 11.1336 50.225C10.8836 49.975 10.6586 49.7 10.4586 49.4C10.2753 49.1 10.1086 48.8 9.95859 48.5L7.93359 44.475C7.61693 43.8583 7.17526 43.3917 6.60859 43.075C6.05859 42.7417 5.40859 42.5583 4.65859 42.525V49.375C4.65859 49.5083 4.67526 49.65 4.70859 49.8C4.74193 49.95 4.79193 50.1 4.85859 50.25C4.92526 50.3833 5.00859 50.5 5.10859 50.6C5.20859 50.6833 5.31693 50.7333 5.43359 50.75H5.60859V51H2.05859V50.75ZM15.0979 34.5H18.5729V34.75H18.4229C18.2395 34.75 18.1145 34.8083 18.0479 34.925C17.9812 35.025 17.9479 35.1333 17.9479 35.25C17.9479 35.3333 17.9562 35.4083 17.9729 35.475C17.9895 35.5417 18.0062 35.5917 18.0229 35.625L22.2979 44.975L26.1229 35.9C26.1395 35.8667 26.1645 35.8 26.1979 35.7C26.2312 35.5833 26.2479 35.475 26.2479 35.375C26.2479 35.1417 26.1645 34.9833 25.9979 34.9C25.8312 34.8 25.7062 34.75 25.6229 34.75V34.5H28.2979V34.75C27.9979 34.75 27.7645 34.8333 27.5979 35C27.4479 35.15 27.3312 35.3083 27.2479 35.475L21.2479 49.825C21.0479 50.3083 20.7812 50.6667 20.4479 50.9C20.1145 51.1167 19.7562 51.225 19.3729 51.225C19.1229 51.225 18.8979 51.1833 18.6979 51.1C18.4979 51.0333 18.3229 50.95 18.1729 50.85C18.0229 50.75 17.9062 50.6583 17.8229 50.575C17.7562 50.4917 17.7229 50.45 17.7229 50.45L18.3479 49.075C18.4812 49.3917 18.6562 49.6417 18.8729 49.825C19.0895 49.9917 19.3145 50.075 19.5479 50.075C19.6979 50.075 19.8479 50.025 19.9979 49.925C20.1645 49.8083 20.3062 49.6333 20.4229 49.4L21.3979 47.025L16.1979 35.55C15.9645 35.05 15.5979 34.7833 15.0979 34.75V34.5ZM29.6465 50.75H29.7715C29.9048 50.75 30.0215 50.7083 30.1215 50.625C30.2215 50.525 30.3048 50.4083 30.3715 50.275C30.4382 50.125 30.4882 49.975 30.5215 49.825C30.5548 49.6583 30.5715 49.5083 30.5715 49.375V36.05C30.5715 35.9333 30.5465 35.8 30.4965 35.65C30.4632 35.5 30.4132 35.3583 30.3465 35.225C30.2798 35.0917 30.1965 34.9833 30.0965 34.9C29.9965 34.8 29.8882 34.75 29.7715 34.75H29.6465V34.5H42.4465V34.75H42.2465C42.1298 34.75 42.0298 34.8 41.9465 34.9C41.8632 34.9833 41.7882 35.1 41.7215 35.25C41.6715 35.3833 41.6298 35.525 41.5965 35.675C41.5632 35.825 41.5465 35.95 41.5465 36.05V49.375C41.5465 49.5083 41.5548 49.65 41.5715 49.8C41.6048 49.95 41.6465 50.1 41.6965 50.25C41.7632 50.3833 41.8382 50.5 41.9215 50.6C42.0215 50.7 42.1298 50.75 42.2465 50.75H42.4465V51H38.9465V50.75H39.1715C39.2882 50.75 39.3882 50.7 39.4715 50.6C39.5715 50.5 39.6465 50.3833 39.6965 50.25C39.7632 50.1167 39.8048 49.975 39.8215 49.825C39.8548 49.6583 39.8715 49.5083 39.8715 49.375V35.375H32.2465V49.375C32.2465 49.5083 32.2632 49.6583 32.2965 49.825C32.3298 49.975 32.3715 50.1167 32.4215 50.25C32.4882 50.3833 32.5715 50.5 32.6715 50.6C32.7715 50.7 32.8882 50.75 33.0215 50.75H33.1465V51H29.6465V50.75ZM54.782 50.75H54.907C55.0404 50.75 55.157 50.7083 55.257 50.625C55.357 50.525 55.4404 50.4083 55.507 50.275C55.5904 50.125 55.6487 49.975 55.682 49.825C55.7154 49.6583 55.732 49.5083 55.732 49.375V37.925L47.432 49.15V49.375C47.432 49.5083 47.4487 49.6583 47.482 49.825C47.532 49.975 47.5904 50.1167 47.657 50.25C47.7237 50.3833 47.807 50.5 47.907 50.6C48.007 50.7 48.1237 50.75 48.257 50.75H48.382V51H44.832V50.75H44.957C45.0904 50.75 45.207 50.7083 45.307 50.625C45.407 50.525 45.4904 50.4083 45.557 50.275C45.6404 50.125 45.6987 49.975 45.732 49.825C45.7654 49.6583 45.782 49.5083 45.782 49.375V36.05C45.782 35.9333 45.7654 35.8 45.732 35.65C45.6987 35.5 45.6404 35.3583 45.557 35.225C45.4904 35.0917 45.407 34.9833 45.307 34.9C45.207 34.8 45.0904 34.75 44.957 34.75H44.832V34.5H48.382V34.75H48.182C48.0654 34.7667 47.957 34.825 47.857 34.925C47.7737 35.025 47.6987 35.1417 47.632 35.275C47.5654 35.3917 47.5154 35.525 47.482 35.675C47.4487 35.8083 47.432 35.9333 47.432 36.05V47.6L55.732 36.375V36.05C55.732 35.9333 55.7154 35.8 55.682 35.65C55.6487 35.5 55.5904 35.3583 55.507 35.225C55.4404 35.0917 55.357 34.9833 55.257 34.9C55.157 34.8 55.0404 34.75 54.907 34.75H54.782V34.5H58.332V34.75H58.207C58.0737 34.75 57.957 34.8 57.857 34.9C57.757 34.9833 57.6737 35.0917 57.607 35.225C57.5404 35.3583 57.482 35.5 57.432 35.65C57.3987 35.8 57.382 35.9333 57.382 36.05V49.375C57.382 49.5083 57.3987 49.65 57.432 49.8C57.482 49.95 57.5404 50.1 57.607 50.25C57.6737 50.3833 57.757 50.5 57.857 50.6C57.957 50.7 58.0737 50.75 58.207 50.75H58.332V51H54.782V50.75ZM67.0262 50.75H67.1512V51H63.6012V50.75H63.7262C63.8595 50.75 63.9762 50.7 64.0762 50.6C64.1762 50.5 64.2595 50.3833 64.3262 50.25C64.4095 50.1167 64.4678 49.975 64.5012 49.825C64.5345 49.6583 64.5512 49.5083 64.5512 49.375V35.425H61.6512C61.3845 35.425 61.1512 35.4833 60.9512 35.6C60.7512 35.7167 60.5845 35.8667 60.4512 36.05C60.3178 36.2167 60.2178 36.4083 60.1512 36.625C60.0845 36.825 60.0512 37.025 60.0512 37.225H59.8012V34.5H71.0262V37.225H70.7762C70.7762 37.025 70.7428 36.825 70.6762 36.625C70.6095 36.4083 70.5095 36.2167 70.3762 36.05C70.2428 35.8667 70.0762 35.7167 69.8762 35.6C69.6762 35.4833 69.4428 35.425 69.1762 35.425H66.2262V49.375C66.2262 49.5083 66.2428 49.6583 66.2762 49.825C66.3095 49.975 66.3595 50.1167 66.4262 50.25C66.5095 50.3833 66.5928 50.5 66.6762 50.6C66.7762 50.7 66.8928 50.75 67.0262 50.75ZM72.3955 50.75H72.5205C72.6372 50.75 72.7455 50.7083 72.8455 50.625C72.9455 50.525 73.0288 50.4083 73.0955 50.275C73.1622 50.1417 73.2122 50 73.2455 49.85C73.2955 49.7 73.3205 49.5667 73.3205 49.45V36.125C73.3205 36.0083 73.3038 35.8667 73.2705 35.7C73.2372 35.5333 73.1788 35.3833 73.0955 35.25C73.0288 35.1167 72.9455 35 72.8455 34.9C72.7455 34.8 72.6372 34.75 72.5205 34.75H72.3955V34.5H75.9205V34.75H75.7455C75.5122 34.7833 75.3288 34.9667 75.1955 35.3C75.0622 35.6167 74.9955 35.8917 74.9955 36.125V41.5H76.3955C77.1622 41.5 77.9122 41.5833 78.6455 41.75C79.3955 41.9 80.0538 42.1667 80.6205 42.55C81.2038 42.9167 81.6705 43.4083 82.0205 44.025C82.3705 44.625 82.5455 45.375 82.5455 46.275C82.5455 47.0083 82.3955 47.6667 82.0955 48.25C81.7955 48.8333 81.3872 49.3333 80.8705 49.75C80.3538 50.15 79.7372 50.4583 79.0205 50.675C78.3205 50.8917 77.5622 51 76.7455 51H72.3955V50.75ZM75.3705 50.125C77.3038 50.125 78.6872 49.7917 79.5205 49.125C80.3705 48.4583 80.7955 47.5417 80.7955 46.375C80.7955 45.1917 80.3705 44.225 79.5205 43.475C78.6872 42.725 77.4538 42.35 75.8205 42.35H74.9955V50.125H75.3705ZM97.4217 50.75H97.5467V51H93.9967V50.75H94.1217C94.255 50.75 94.3717 50.7 94.4717 50.6C94.5717 50.5 94.655 50.3833 94.7217 50.25C94.805 50.1167 94.8633 49.975 94.8967 49.825C94.93 49.6583 94.9467 49.5083 94.9467 49.375V35.425H92.0467C91.78 35.425 91.5467 35.4833 91.3467 35.6C91.1467 35.7167 90.98 35.8667 90.8467 36.05C90.7133 36.2167 90.6133 36.4083 90.5467 36.625C90.48 36.825 90.4467 37.025 90.4467 37.225H90.1967V34.5H101.422V37.225H101.172C101.172 37.025 101.138 36.825 101.072 36.625C101.005 36.4083 100.905 36.2167 100.772 36.05C100.638 35.8667 100.472 35.7167 100.272 35.6C100.072 35.4833 99.8383 35.425 99.5717 35.425H96.6217V49.375C96.6217 49.5083 96.6383 49.6583 96.6717 49.825C96.705 49.975 96.755 50.1167 96.8217 50.25C96.905 50.3833 96.9883 50.5 97.0717 50.6C97.1717 50.7 97.2883 50.75 97.4217 50.75ZM121.441 34.75C121.108 34.75 120.824 34.8917 120.591 35.175C120.358 35.4583 120.199 35.7667 120.116 36.1L115.566 51.1L111.666 38.8L107.766 51.125L103.191 36.125C103.108 35.8083 102.958 35.5 102.741 35.2C102.541 34.9 102.308 34.75 102.041 34.75V34.5H105.591V34.75C105.374 34.75 105.191 34.8417 105.041 35.025C104.908 35.1917 104.841 35.4083 104.841 35.675C104.841 35.7583 104.858 35.8667 104.891 36L108.141 46.6L112.116 34.35L115.941 46.575L119.241 36C119.241 35.9667 119.249 35.9 119.266 35.8C119.299 35.6833 119.316 35.5917 119.316 35.525C119.316 35.2917 119.249 35.1083 119.116 34.975C118.983 34.825 118.849 34.75 118.716 34.75V34.5H121.441V34.75ZM122.933 50.75H123.058C123.191 50.75 123.308 50.7083 123.408 50.625C123.508 50.525 123.591 50.4083 123.658 50.275C123.741 50.1417 123.799 50 123.833 49.85C123.883 49.7 123.908 49.5583 123.908 49.425V36.05C123.908 35.9333 123.883 35.8 123.833 35.65C123.799 35.5 123.741 35.3583 123.658 35.225C123.591 35.0917 123.508 34.9833 123.408 34.9C123.308 34.8 123.191 34.75 123.058 34.75H122.933V34.5H132.558V36.825H132.308C132.274 36.4417 132.124 36.1083 131.858 35.825C131.591 35.525 131.174 35.375 130.608 35.375H125.583V41.7H129.733C130.116 41.7 130.433 41.5833 130.683 41.35C130.949 41.1167 131.083 40.8417 131.083 40.525H131.333V43.65H131.083C131.083 43.35 130.958 43.0917 130.708 42.875C130.458 42.6583 130.133 42.55 129.733 42.55H125.583V50.125H131.058C131.374 50.125 131.649 50.05 131.883 49.9C132.116 49.75 132.308 49.575 132.458 49.375C132.624 49.1583 132.741 48.9333 132.808 48.7C132.891 48.45 132.933 48.2417 132.933 48.075H133.183V51H122.933V50.75ZM135.066 50.75H135.191C135.325 50.75 135.441 50.7083 135.541 50.625C135.641 50.525 135.725 50.4083 135.791 50.275C135.875 50.1417 135.933 50 135.966 49.85C136.016 49.7 136.041 49.5583 136.041 49.425V36.05C136.041 35.9333 136.016 35.8 135.966 35.65C135.933 35.5 135.875 35.3583 135.791 35.225C135.725 35.0917 135.641 34.9833 135.541 34.9C135.441 34.8 135.325 34.75 135.191 34.75H135.066V34.5H138.666V34.75H138.541C138.408 34.75 138.291 34.8 138.191 34.9C138.091 34.9833 138.008 35.0917 137.941 35.225C137.875 35.3583 137.816 35.5 137.766 35.65C137.733 35.8 137.716 35.9333 137.716 36.05V50.075H143.191C143.508 50.075 143.783 50 144.016 49.85C144.25 49.7 144.441 49.5167 144.591 49.3C144.758 49.0667 144.875 48.825 144.941 48.575C145.025 48.3083 145.066 48.0667 145.066 47.85H145.316V51H135.066V50.75ZM145.32 35.375C145.32 35.475 145.345 35.6 145.395 35.75L149.795 47.6L154.195 35.625C154.211 35.5917 154.228 35.5417 154.245 35.475C154.261 35.4083 154.27 35.3583 154.27 35.325C154.27 35.125 154.186 34.9833 154.02 34.9C153.87 34.8 153.728 34.75 153.595 34.75V34.5H156.32V34.75C156.07 34.75 155.836 34.8167 155.62 34.95C155.42 35.0833 155.261 35.3083 155.145 35.625L149.42 51.3L143.57 35.7C143.47 35.45 143.32 35.2333 143.12 35.05C142.936 34.8667 142.703 34.7667 142.42 34.75V34.5H145.97V34.75C145.82 34.75 145.67 34.8083 145.52 34.925C145.386 35.025 145.32 35.175 145.32 35.375ZM157.991 50.75H158.116C158.25 50.75 158.366 50.7083 158.466 50.625C158.566 50.525 158.65 50.4083 158.716 50.275C158.8 50.1417 158.858 50 158.891 49.85C158.941 49.7 158.966 49.5583 158.966 49.425V36.05C158.966 35.9333 158.941 35.8 158.891 35.65C158.858 35.5 158.8 35.3583 158.716 35.225C158.65 35.0917 158.566 34.9833 158.466 34.9C158.366 34.8 158.25 34.75 158.116 34.75H157.991V34.5H167.616V36.825H167.366C167.333 36.4417 167.183 36.1083 166.916 35.825C166.65 35.525 166.233 35.375 165.666 35.375H160.641V41.7H164.791C165.175 41.7 165.491 41.5833 165.741 41.35C166.008 41.1167 166.141 40.8417 166.141 40.525H166.391V43.65H166.141C166.141 43.35 166.016 43.0917 165.766 42.875C165.516 42.6583 165.191 42.55 164.791 42.55H160.641V50.125H166.116C166.433 50.125 166.708 50.05 166.941 49.9C167.175 49.75 167.366 49.575 167.516 49.375C167.683 49.1583 167.8 48.9333 167.866 48.7C167.95 48.45 167.991 48.2417 167.991 48.075H168.241V51H157.991V50.75Z" fill="white"/>
<circle cx="163.5" cy="42.5" r="41.9061" stroke="white" stroke-opacity="0.5" stroke-width="1.18788"/>
<path d="M246.383 43.2261C246.615 42.9942 246.615 42.6181 246.383 42.3862L242.603 38.6064C242.371 38.3744 241.995 38.3744 241.763 38.6064C241.531 38.8383 241.531 39.2144 241.763 39.4463L245.123 42.8062L241.763 46.166C241.531 46.3979 241.531 46.774 241.763 47.0059C241.995 47.2379 242.371 47.2379 242.603 47.0059L246.383 43.2261ZM182.994 43.4001H245.963V42.2122H182.994V43.4001Z" fill="white" fill-opacity="0.5"/>
</svg>
