<svg width="46" height="49" viewBox="0 0 46 49" fill="none" xmlns="http://www.w3.org/2000/svg">
<mask id="mask0" mask-type="alpha" maskUnits="userSpaceOnUse" x="0" y="0" width="46" height="49">
<rect width="46" height="48.9677" fill="#C4C4C4"/>
</mask>
<g mask="url(#mask0)">
<path d="M19.9685 2.36849V47.3541H8.71073V23.2358C8.71073 19.7533 8.62714 17.6601 8.45994 16.9562C8.29275 16.2523 7.82831 15.7243 7.06665 15.3724C6.32356 15.0019 4.65161 14.8166 2.05079 14.8166H0.936157V9.56508C6.37929 8.39806 10.5127 5.9992 13.3365 2.36849H19.9685Z" fill="#343C47"/>
<path d="M21.6986 2.36798V47.3536H10.4408V23.2353C10.4408 19.7528 10.3572 17.6596 10.19 16.9557C10.0228 16.2517 9.55842 15.7238 8.79675 15.3719C8.05366 15.0014 6.38171 14.8161 3.78089 14.8161H2.66626V9.56457C8.10939 8.39756 12.2428 5.99869 15.0666 2.36798H21.6986Z" fill="white"/>
<path d="M41.4512 39.8287V47.3536H16.508V41.0556C23.8965 29.3139 28.2828 22.0526 29.667 19.2717C31.0699 16.4726 31.7713 14.2914 31.7713 12.7283C31.7713 11.5287 31.5562 10.6381 31.126 10.0564C30.7145 9.45663 30.0785 9.15672 29.2181 9.15672C28.3576 9.15672 27.7123 9.48389 27.2821 10.1382C26.8706 10.7926 26.6648 12.0921 26.6648 14.037V18.2356H16.508V16.6271C16.508 14.1551 16.6389 12.2103 16.9008 10.7926C17.1627 9.35666 17.808 7.94802 18.8368 6.56664C19.8656 5.18526 21.203 4.14014 22.849 3.43128C24.495 2.72241 26.4684 2.36798 28.7692 2.36798C33.2771 2.36798 36.6814 3.45854 38.9821 5.63966C41.3015 7.80261 42.4612 10.5472 42.4612 13.8734C42.4612 16.3999 41.8066 19.0717 40.4972 21.889C39.2066 24.7063 35.3814 30.6862 29.0217 39.8287H41.4512Z" fill="#343C47"/>
<path d="M43.1815 39.8287V47.3536H18.2383V41.0556C25.6268 29.3139 30.0131 22.0526 31.3973 19.2717C32.8002 16.4726 33.5016 14.2914 33.5016 12.7283C33.5016 11.5287 33.2865 10.6381 32.8563 10.0564C32.4448 9.45663 31.8088 9.15672 30.9484 9.15672C30.0879 9.15672 29.4426 9.48389 29.0124 10.1382C28.6009 10.7926 28.3951 12.0921 28.3951 14.037V18.2356H18.2383V16.6271C18.2383 14.1551 18.3692 12.2103 18.6311 10.7926C18.893 9.35666 19.5383 7.94802 20.5671 6.56664C21.5958 5.18526 22.9332 4.14014 24.5793 3.43128C26.2253 2.72241 28.1987 2.36798 30.4994 2.36798C35.0074 2.36798 38.4117 3.45854 40.7124 5.63966C43.0318 7.80261 44.1915 10.5472 44.1915 13.8734C44.1915 16.3999 43.5369 19.0717 42.2275 21.889C40.9369 24.7063 37.1117 30.6862 30.752 39.8287H43.1815Z" fill="white"/>
</g>
</svg>
