<svg width="152" height="35" viewBox="0 0 152 35" fill="none" xmlns="http://www.w3.org/2000/svg">
<mask id="mask0" mask-type="alpha" maskUnits="userSpaceOnUse" x="0" y="0" width="33" height="35">
<rect width="32.3193" height="34.4044" fill="#C4C4C4"/>
</mask>
<g mask="url(#mask0)">
<path d="M14.0298 1.66412V33.2708H6.12009V16.3254C6.12009 13.8786 6.06135 12.4079 5.94388 11.9133C5.82641 11.4188 5.5001 11.0479 4.96496 10.8006C4.44287 10.5403 3.26817 10.4101 1.44085 10.4101H0.657715V6.72041C4.48203 5.90047 7.38616 4.21504 9.3701 1.66412H14.0298Z" fill="#EDB18D"/>
<path d="M15.2453 1.66357V33.2702H7.33566V16.3248C7.33566 13.878 7.27693 12.4074 7.15946 11.9128C7.04199 11.4182 6.71568 11.0473 6.18054 10.8C5.65845 10.5397 4.48374 10.4096 2.65643 10.4096H1.87329V6.71986C5.6976 5.89992 8.60173 4.21449 10.5857 1.66357H15.2453Z" fill="#4E4D50"/>
<path d="M29.1233 27.9833V33.2702H11.5984V28.8453C16.7895 20.5956 19.8713 15.4939 20.8439 13.54C21.8295 11.5734 22.3223 10.0409 22.3223 8.94268C22.3223 8.09984 22.1712 7.47409 21.8689 7.06544C21.5798 6.64401 21.133 6.4333 20.5284 6.4333C19.9239 6.4333 19.4705 6.66317 19.1682 7.1229C18.8791 7.58264 18.7346 8.49572 18.7346 9.86215V12.8121H11.5984V11.6819C11.5984 9.94515 11.6904 8.57872 11.8744 7.58264C12.0584 6.57378 12.5118 5.58407 13.2346 4.61353C13.9574 3.64298 14.8971 2.90868 16.0536 2.41064C17.2101 1.9126 18.5966 1.66357 20.213 1.66357C23.3803 1.66357 25.7721 2.4298 27.3886 3.96224C29.0182 5.48191 29.833 7.41024 29.833 9.74721C29.833 11.5223 29.373 13.3995 28.4531 15.3789C27.5463 17.3583 24.8588 21.5598 20.3905 27.9833H29.1233Z" fill="#EDB18D"/>
<path d="M30.339 27.9833V33.2702H12.8141V28.8453C18.0052 20.5956 21.087 15.4939 22.0596 13.54C23.0452 11.5734 23.538 10.0409 23.538 8.94268C23.538 8.09984 23.3869 7.47409 23.0846 7.06544C22.7955 6.64401 22.3487 6.4333 21.7441 6.4333C21.1396 6.4333 20.6862 6.66317 20.3839 7.1229C20.0948 7.58264 19.9503 8.49572 19.9503 9.86215V12.8121H12.8141V11.6819C12.8141 9.94515 12.9061 8.57872 13.0901 7.58264C13.2741 6.57378 13.7275 5.58407 14.4503 4.61353C15.1731 3.64298 16.1128 2.90868 17.2693 2.41064C18.4258 1.9126 19.8123 1.66357 21.4287 1.66357C24.596 1.66357 26.9878 2.4298 28.6043 3.96224C30.2339 5.48191 31.0487 7.41024 31.0487 9.74721C31.0487 11.5223 30.5887 13.3995 29.6688 15.3789C28.762 17.3583 26.0744 21.5598 21.6062 27.9833H30.339Z" fill="#4E4D50"/>
</g>
<path d="M58.5752 4.06573V10.0513H54.0819V33.9749H46.5152V10.0513H42.0399V4.06573H58.5752Z" fill="#4E4D50"/>
<path d="M88.7702 4.06573L85.4093 33.9749H75.9553C75.0926 29.3811 74.3318 24.1591 73.6727 18.3091C73.3732 20.8092 72.6722 26.0311 71.5699 33.9749H62.1699L58.7909 4.06573H66.142L66.9148 14.5035L67.7056 24.5717C67.9812 19.3621 68.6762 12.5268 69.7905 4.06573H77.6628C77.7706 4.94016 78.0462 8.22851 78.4896 13.9308L79.3163 25.2922C79.7357 18.0628 80.4367 10.9873 81.4192 4.06573H88.7702Z" fill="#4E4D50"/>
<path d="M90.28 4.06573H102.897V10.0513H97.8467V15.7227H102.574V21.4127H97.8467V27.9894H103.4V33.9749H90.28V4.06573Z" fill="#4E4D50"/>
<path d="M113.16 4.06573V27.9894H117.761V33.9749H105.593V4.06573H113.16Z" fill="#4E4D50"/>
<path d="M137.585 4.06573L133.739 33.9749H122.254L117.887 4.06573H125.867C126.79 12.3051 127.449 19.2697 127.844 24.9597C128.239 19.2081 128.653 14.097 129.084 9.62636L129.605 4.06573H137.585Z" fill="#4E4D50"/>
<path d="M138.88 4.06573H151.497V10.0513H146.446V15.7227H151.173V21.4127H146.446V27.9894H152V33.9749H138.88V4.06573Z" fill="#4E4D50"/>
</svg>
