<svg width="82" height="48" viewBox="0 0 82 48" fill="none" xmlns="http://www.w3.org/2000/svg">
<path d="M0.581055 16.75H0.706055C0.839388 16.75 0.956055 16.7 1.05605 16.6C1.15605 16.5 1.23939 16.3833 1.30605 16.25C1.38939 16.1167 1.44772 15.975 1.48105 15.825C1.51439 15.6583 1.53105 15.5083 1.53105 15.375V2.05C1.53105 1.93333 1.51439 1.8 1.48105 1.65C1.44772 1.5 1.38939 1.35833 1.30605 1.225C1.23939 1.09167 1.15605 0.983332 1.05605 0.899999C0.956055 0.799999 0.847721 0.749999 0.731055 0.749999H0.606055V0.499999H4.15605V0.749999H4.03106C3.89772 0.749999 3.78106 0.799999 3.68106 0.899999C3.58105 0.983332 3.48939 1.09167 3.40605 1.225C3.33939 1.35833 3.28105 1.5 3.23105 1.65C3.19772 1.8 3.18105 1.93333 3.18105 2.05V7.225L8.98105 1.45C9.11439 1.31667 9.18106 1.15833 9.18106 0.974999C9.18106 0.824999 9.11439 0.749999 8.98105 0.749999V0.499999H11.6811V0.749999C11.3477 0.766666 11.0477 0.866666 10.7811 1.05C10.5311 1.23333 10.2561 1.475 9.95606 1.775L4.03106 7.7C5.11439 7.73333 5.98939 7.96667 6.65606 8.4C7.32272 8.83333 7.84772 9.43333 8.23105 10.2L10.2061 14.2C10.3227 14.45 10.4727 14.725 10.6561 15.025C10.8561 15.3083 11.0727 15.5833 11.3061 15.85C11.5561 16.1 11.8311 16.3167 12.1311 16.5C12.4311 16.6667 12.7477 16.75 13.0811 16.75V17H11.8311C11.3477 17 10.9311 16.9333 10.5811 16.8C10.2311 16.65 9.92272 16.4583 9.65606 16.225C9.40605 15.975 9.18105 15.7 8.98105 15.4C8.79772 15.1 8.63106 14.8 8.48106 14.5L6.45605 10.475C6.13939 9.85833 5.69772 9.39167 5.13106 9.075C4.58105 8.74167 3.93105 8.55833 3.18105 8.525V15.375C3.18105 15.5083 3.19772 15.65 3.23105 15.8C3.26439 15.95 3.31439 16.1 3.38105 16.25C3.44772 16.3833 3.53105 16.5 3.63105 16.6C3.73105 16.6833 3.83939 16.7333 3.95605 16.75H4.13105V17H0.581055V16.75ZM13.6203 0.499999H17.0953V0.749999H16.9453C16.762 0.749999 16.637 0.808333 16.5703 0.925C16.5036 1.025 16.4703 1.13333 16.4703 1.25C16.4703 1.33333 16.4786 1.40833 16.4953 1.475C16.512 1.54167 16.5286 1.59167 16.5453 1.625L20.8203 10.975L24.6453 1.9C24.662 1.86667 24.687 1.8 24.7203 1.7C24.7536 1.58333 24.7703 1.475 24.7703 1.375C24.7703 1.14167 24.687 0.983332 24.5203 0.899999C24.3536 0.799999 24.2286 0.749999 24.1453 0.749999V0.499999H26.8203V0.749999C26.5203 0.749999 26.287 0.833332 26.1203 0.999999C25.9703 1.15 25.8536 1.30833 25.7703 1.475L19.7703 15.825C19.5703 16.3083 19.3036 16.6667 18.9703 16.9C18.637 17.1167 18.2786 17.225 17.8953 17.225C17.6453 17.225 17.4203 17.1833 17.2203 17.1C17.0203 17.0333 16.8453 16.95 16.6953 16.85C16.5453 16.75 16.4286 16.6583 16.3453 16.575C16.2786 16.4917 16.2453 16.45 16.2453 16.45L16.8703 15.075C17.0036 15.3917 17.1786 15.6417 17.3953 15.825C17.612 15.9917 17.837 16.075 18.0703 16.075C18.2203 16.075 18.3703 16.025 18.5203 15.925C18.687 15.8083 18.8286 15.6333 18.9453 15.4L19.9203 13.025L14.7203 1.55C14.487 1.05 14.1203 0.783333 13.6203 0.749999V0.499999ZM28.1689 16.75H28.2939C28.4273 16.75 28.5439 16.7083 28.6439 16.625C28.7439 16.525 28.8273 16.4083 28.8939 16.275C28.9606 16.125 29.0106 15.975 29.0439 15.825C29.0773 15.6583 29.0939 15.5083 29.0939 15.375V2.05C29.0939 1.93333 29.0689 1.8 29.0189 1.65C28.9856 1.5 28.9356 1.35833 28.8689 1.225C28.8023 1.09167 28.7189 0.983332 28.6189 0.899999C28.5189 0.799999 28.4106 0.749999 28.2939 0.749999H28.1689V0.499999H40.9689V0.749999H40.7689C40.6523 0.749999 40.5523 0.799999 40.4689 0.899999C40.3856 0.983332 40.3106 1.1 40.2439 1.25C40.1939 1.38333 40.1523 1.525 40.1189 1.675C40.0856 1.825 40.0689 1.95 40.0689 2.05V15.375C40.0689 15.5083 40.0773 15.65 40.0939 15.8C40.1273 15.95 40.1689 16.1 40.2189 16.25C40.2856 16.3833 40.3606 16.5 40.4439 16.6C40.5439 16.7 40.6523 16.75 40.7689 16.75H40.9689V17H37.4689V16.75H37.6939C37.8106 16.75 37.9106 16.7 37.9939 16.6C38.0939 16.5 38.1689 16.3833 38.2189 16.25C38.2856 16.1167 38.3273 15.975 38.3439 15.825C38.3773 15.6583 38.3939 15.5083 38.3939 15.375V1.375H30.7689V15.375C30.7689 15.5083 30.7856 15.6583 30.8189 15.825C30.8523 15.975 30.8939 16.1167 30.9439 16.25C31.0106 16.3833 31.0939 16.5 31.1939 16.6C31.2939 16.7 31.4106 16.75 31.5439 16.75H31.6689V17H28.1689V16.75ZM53.3045 16.75H53.4295C53.5628 16.75 53.6795 16.7083 53.7795 16.625C53.8795 16.525 53.9628 16.4083 54.0295 16.275C54.1128 16.125 54.1712 15.975 54.2045 15.825C54.2378 15.6583 54.2545 15.5083 54.2545 15.375V3.925L45.9545 15.15V15.375C45.9545 15.5083 45.9712 15.6583 46.0045 15.825C46.0545 15.975 46.1128 16.1167 46.1795 16.25C46.2462 16.3833 46.3295 16.5 46.4295 16.6C46.5295 16.7 46.6462 16.75 46.7795 16.75H46.9045V17H43.3545V16.75H43.4795C43.6128 16.75 43.7295 16.7083 43.8295 16.625C43.9295 16.525 44.0128 16.4083 44.0795 16.275C44.1628 16.125 44.2212 15.975 44.2545 15.825C44.2878 15.6583 44.3045 15.5083 44.3045 15.375V2.05C44.3045 1.93333 44.2878 1.8 44.2545 1.65C44.2212 1.5 44.1628 1.35833 44.0795 1.225C44.0128 1.09167 43.9295 0.983332 43.8295 0.899999C43.7295 0.799999 43.6128 0.749999 43.4795 0.749999H43.3545V0.499999H46.9045V0.749999H46.7045C46.5878 0.766666 46.4795 0.824999 46.3795 0.925C46.2962 1.025 46.2212 1.14167 46.1545 1.275C46.0878 1.39167 46.0378 1.525 46.0045 1.675C45.9712 1.80833 45.9545 1.93333 45.9545 2.05V13.6L54.2545 2.375V2.05C54.2545 1.93333 54.2378 1.8 54.2045 1.65C54.1712 1.5 54.1128 1.35833 54.0295 1.225C53.9628 1.09167 53.8795 0.983332 53.7795 0.899999C53.6795 0.799999 53.5628 0.749999 53.4295 0.749999H53.3045V0.499999H56.8545V0.749999H56.7295C56.5962 0.749999 56.4795 0.799999 56.3795 0.899999C56.2795 0.983332 56.1962 1.09167 56.1295 1.225C56.0628 1.35833 56.0045 1.5 55.9545 1.65C55.9212 1.8 55.9045 1.93333 55.9045 2.05V15.375C55.9045 15.5083 55.9212 15.65 55.9545 15.8C56.0045 15.95 56.0628 16.1 56.1295 16.25C56.1962 16.3833 56.2795 16.5 56.3795 16.6C56.4795 16.7 56.5962 16.75 56.7295 16.75H56.8545V17H53.3045V16.75ZM65.5486 16.75H65.6736V17H62.1236V16.75H62.2486C62.382 16.75 62.4986 16.7 62.5986 16.6C62.6986 16.5 62.782 16.3833 62.8486 16.25C62.932 16.1167 62.9903 15.975 63.0236 15.825C63.057 15.6583 63.0736 15.5083 63.0736 15.375V1.425H60.1736C59.907 1.425 59.6736 1.48333 59.4736 1.6C59.2736 1.71667 59.107 1.86667 58.9736 2.05C58.8403 2.21667 58.7403 2.40833 58.6736 2.625C58.607 2.825 58.5736 3.025 58.5736 3.225H58.3236V0.499999H69.5486V3.225H69.2986C69.2986 3.025 69.2653 2.825 69.1986 2.625C69.132 2.40833 69.032 2.21667 68.8986 2.05C68.7653 1.86667 68.5986 1.71667 68.3986 1.6C68.1986 1.48333 67.9653 1.425 67.6986 1.425H64.7486V15.375C64.7486 15.5083 64.7653 15.6583 64.7986 15.825C64.832 15.975 64.882 16.1167 64.9486 16.25C65.032 16.3833 65.1153 16.5 65.1986 16.6C65.2986 16.7 65.4153 16.75 65.5486 16.75ZM70.918 16.75H71.043C71.1596 16.75 71.268 16.7083 71.368 16.625C71.468 16.525 71.5513 16.4083 71.618 16.275C71.6846 16.1417 71.7346 16 71.768 15.85C71.818 15.7 71.843 15.5667 71.843 15.45V2.125C71.843 2.00833 71.8263 1.86667 71.793 1.7C71.7596 1.53333 71.7013 1.38333 71.618 1.25C71.5513 1.11667 71.468 0.999999 71.368 0.899999C71.268 0.799999 71.1596 0.749999 71.043 0.749999H70.918V0.499999H74.443V0.749999H74.268C74.0346 0.783333 73.8513 0.966666 73.718 1.3C73.5846 1.61667 73.518 1.89167 73.518 2.125V7.5H74.918C75.6846 7.5 76.4346 7.58333 77.168 7.75C77.918 7.9 78.5763 8.16667 79.143 8.55C79.7263 8.91667 80.193 9.40833 80.543 10.025C80.893 10.625 81.068 11.375 81.068 12.275C81.068 13.0083 80.918 13.6667 80.618 14.25C80.318 14.8333 79.9096 15.3333 79.393 15.75C78.8763 16.15 78.2596 16.4583 77.543 16.675C76.843 16.8917 76.0846 17 75.268 17H70.918V16.75ZM73.893 16.125C75.8263 16.125 77.2096 15.7917 78.043 15.125C78.893 14.4583 79.318 13.5417 79.318 12.375C79.318 11.1917 78.893 10.225 78.043 9.475C77.2096 8.725 75.9763 8.35 74.343 8.35H73.518V16.125H73.893ZM10.4217 46.75H10.5467V47H6.99668V46.75H7.12168C7.25501 46.75 7.37168 46.7 7.47168 46.6C7.57168 46.5 7.65501 46.3833 7.72168 46.25C7.80501 46.1167 7.86335 45.975 7.89668 45.825C7.93001 45.6583 7.94668 45.5083 7.94668 45.375V31.425H5.04668C4.78001 31.425 4.54668 31.4833 4.34668 31.6C4.14668 31.7167 3.98001 31.8667 3.84668 32.05C3.71335 32.2167 3.61335 32.4083 3.54668 32.625C3.48001 32.825 3.44668 33.025 3.44668 33.225H3.19668V30.5H14.4217V33.225H14.1717C14.1717 33.025 14.1383 32.825 14.0717 32.625C14.005 32.4083 13.905 32.2167 13.7717 32.05C13.6383 31.8667 13.4717 31.7167 13.2717 31.6C13.0717 31.4833 12.8383 31.425 12.5717 31.425H9.62168V45.375C9.62168 45.5083 9.63835 45.6583 9.67168 45.825C9.70501 45.975 9.75501 46.1167 9.82168 46.25C9.90501 46.3833 9.98835 46.5 10.0717 46.6C10.1717 46.7 10.2883 46.75 10.4217 46.75ZM34.441 30.75C34.1077 30.75 33.8243 30.8917 33.591 31.175C33.3577 31.4583 33.1993 31.7667 33.116 32.1L28.566 47.1L24.666 34.8L20.766 47.125L16.191 32.125C16.1077 31.8083 15.9577 31.5 15.741 31.2C15.541 30.9 15.3077 30.75 15.041 30.75V30.5H18.591V30.75C18.3743 30.75 18.191 30.8417 18.041 31.025C17.9077 31.1917 17.841 31.4083 17.841 31.675C17.841 31.7583 17.8577 31.8667 17.891 32L21.141 42.6L25.116 30.35L28.941 42.575L32.241 32C32.241 31.9667 32.2493 31.9 32.266 31.8C32.2993 31.6833 32.316 31.5917 32.316 31.525C32.316 31.2917 32.2493 31.1083 32.116 30.975C31.9827 30.825 31.8494 30.75 31.716 30.75V30.5H34.441V30.75ZM35.9326 46.75H36.0576C36.191 46.75 36.3076 46.7083 36.4076 46.625C36.5076 46.525 36.591 46.4083 36.6576 46.275C36.741 46.1417 36.7993 46 36.8326 45.85C36.8826 45.7 36.9076 45.5583 36.9076 45.425V32.05C36.9076 31.9333 36.8826 31.8 36.8326 31.65C36.7993 31.5 36.741 31.3583 36.6576 31.225C36.591 31.0917 36.5076 30.9833 36.4076 30.9C36.3076 30.8 36.191 30.75 36.0576 30.75H35.9326V30.5H45.5576V32.825H45.3076C45.2743 32.4417 45.1243 32.1083 44.8576 31.825C44.591 31.525 44.1743 31.375 43.6076 31.375H38.5826V37.7H42.7326C43.116 37.7 43.4326 37.5833 43.6826 37.35C43.9493 37.1167 44.0826 36.8417 44.0826 36.525H44.3326V39.65H44.0826C44.0826 39.35 43.9576 39.0917 43.7076 38.875C43.4576 38.6583 43.1326 38.55 42.7326 38.55H38.5826V46.125H44.0576C44.3743 46.125 44.6493 46.05 44.8826 45.9C45.116 45.75 45.3076 45.575 45.4576 45.375C45.6243 45.1583 45.741 44.9333 45.8076 44.7C45.891 44.45 45.9326 44.2417 45.9326 44.075H46.1826V47H35.9326V46.75ZM48.0664 46.75H48.1914C48.3247 46.75 48.4414 46.7083 48.5414 46.625C48.6414 46.525 48.7247 46.4083 48.7914 46.275C48.8747 46.1417 48.9331 46 48.9664 45.85C49.0164 45.7 49.0414 45.5583 49.0414 45.425V32.05C49.0414 31.9333 49.0164 31.8 48.9664 31.65C48.9331 31.5 48.8747 31.3583 48.7914 31.225C48.7247 31.0917 48.6414 30.9833 48.5414 30.9C48.4414 30.8 48.3247 30.75 48.1914 30.75H48.0664V30.5H51.6664V30.75H51.5414C51.4081 30.75 51.2914 30.8 51.1914 30.9C51.0914 30.9833 51.0081 31.0917 50.9414 31.225C50.8747 31.3583 50.8164 31.5 50.7664 31.65C50.7331 31.8 50.7164 31.9333 50.7164 32.05V46.075H56.1914C56.5081 46.075 56.7831 46 57.0164 45.85C57.2497 45.7 57.4414 45.5167 57.5914 45.3C57.7581 45.0667 57.8747 44.825 57.9414 44.575C58.0247 44.3083 58.0664 44.0667 58.0664 43.85H58.3164V47H48.0664V46.75ZM58.3195 31.375C58.3195 31.475 58.3445 31.6 58.3945 31.75L62.7945 43.6L67.1945 31.625C67.2112 31.5917 67.2279 31.5417 67.2445 31.475C67.2612 31.4083 67.2695 31.3583 67.2695 31.325C67.2695 31.125 67.1862 30.9833 67.0195 30.9C66.8695 30.8 66.7279 30.75 66.5945 30.75V30.5H69.3195V30.75C69.0695 30.75 68.8362 30.8167 68.6195 30.95C68.4195 31.0833 68.2612 31.3083 68.1445 31.625L62.4195 47.3L56.5695 31.7C56.4695 31.45 56.3195 31.2333 56.1195 31.05C55.9362 30.8667 55.7029 30.7667 55.4195 30.75V30.5H58.9695V30.75C58.8195 30.75 58.6695 30.8083 58.5195 30.925C58.3862 31.025 58.3195 31.175 58.3195 31.375ZM70.9912 46.75H71.1162C71.2495 46.75 71.3662 46.7083 71.4662 46.625C71.5662 46.525 71.6495 46.4083 71.7162 46.275C71.7995 46.1417 71.8579 46 71.8912 45.85C71.9412 45.7 71.9662 45.5583 71.9662 45.425V32.05C71.9662 31.9333 71.9412 31.8 71.8912 31.65C71.8579 31.5 71.7995 31.3583 71.7162 31.225C71.6495 31.0917 71.5662 30.9833 71.4662 30.9C71.3662 30.8 71.2495 30.75 71.1162 30.75H70.9912V30.5H80.6162V32.825H80.3662C80.3329 32.4417 80.1829 32.1083 79.9162 31.825C79.6495 31.525 79.2329 31.375 78.6662 31.375H73.6412V37.7H77.7912C78.1745 37.7 78.4912 37.5833 78.7412 37.35C79.0079 37.1167 79.1412 36.8417 79.1412 36.525H79.3912V39.65H79.1412C79.1412 39.35 79.0162 39.0917 78.7662 38.875C78.5162 38.6583 78.1912 38.55 77.7912 38.55H73.6412V46.125H79.1162C79.4329 46.125 79.7079 46.05 79.9412 45.9C80.1745 45.75 80.3662 45.575 80.5162 45.375C80.6829 45.1583 80.7995 44.9333 80.8662 44.7C80.9495 44.45 80.9912 44.2417 80.9912 44.075H81.2412V47H70.9912V46.75Z" fill="white"/>
</svg>
